<mxfile host="www.draw.io" modified="2020-05-21T21:35:04.070Z" agent="5.0 (Macintosh; Intel Mac OS X 10_14_5) AppleWebKit/537.36 (KHTML, like Gecko) Chrome/81.0.4044.138 Safari/537.36" etag="FJtT-FJS69RFacNhsi-Y" version="13.1.3" type="github">
  <diagram id="vb_N3dxTnlGqbVyNe5-i" name="Page-1">
    <mxGraphModel dx="1132" dy="712" grid="1" gridSize="10" guides="1" tooltips="1" connect="1" arrows="1" fold="1" page="1" pageScale="1" pageWidth="1100" pageHeight="850" math="0" shadow="0">
      <root>
        <mxCell id="0" />
        <mxCell id="1" parent="0" />
        <mxCell id="XPzWv2A-EOttogHoarsB-14" value="" style="edgeStyle=orthogonalEdgeStyle;rounded=0;orthogonalLoop=1;jettySize=auto;html=1;startArrow=oval;startFill=1;strokeWidth=2;exitX=1;exitY=0.25;exitDx=0;exitDy=0;strokeColor=#FF8000;" edge="1" parent="1" source="BX0J_fmMSgkrb7NshgZh-4">
          <mxGeometry relative="1" as="geometry">
            <mxPoint x="588" y="360" as="targetPoint" />
            <Array as="points">
              <mxPoint x="950" y="455" />
              <mxPoint x="950" y="300" />
              <mxPoint x="588" y="300" />
            </Array>
            <mxPoint x="860" y="370" as="sourcePoint" />
          </mxGeometry>
        </mxCell>
        <mxCell id="BX0J_fmMSgkrb7NshgZh-2" value="EFP&lt;br&gt;&lt;br&gt;&lt;br&gt;" style="rounded=1;whiteSpace=wrap;html=1;shadow=1;comic=1;fontStyle=1" parent="1" vertex="1">
          <mxGeometry x="430" y="360" width="210" height="130" as="geometry" />
        </mxCell>
        <mxCell id="BX0J_fmMSgkrb7NshgZh-12" value="" style="edgeStyle=orthogonalEdgeStyle;rounded=0;orthogonalLoop=1;jettySize=auto;html=1;startArrow=oval;startFill=1;strokeWidth=2;entryX=0;entryY=0.5;entryDx=0;entryDy=0;strokeColor=#3333FF;" parent="1" source="BX0J_fmMSgkrb7NshgZh-1" target="BX0J_fmMSgkrb7NshgZh-2" edge="1">
          <mxGeometry relative="1" as="geometry">
            <mxPoint x="430" y="425" as="targetPoint" />
            <Array as="points">
              <mxPoint x="300" y="340" />
              <mxPoint x="300" y="425" />
            </Array>
          </mxGeometry>
        </mxCell>
        <mxCell id="BX0J_fmMSgkrb7NshgZh-1" value="CAS" style="rounded=1;whiteSpace=wrap;html=1;shadow=1;comic=1;" parent="1" vertex="1">
          <mxGeometry x="160" y="310" width="120" height="60" as="geometry" />
        </mxCell>
        <mxCell id="BX0J_fmMSgkrb7NshgZh-20" value="" style="edgeStyle=orthogonalEdgeStyle;rounded=0;orthogonalLoop=1;jettySize=auto;html=1;startArrow=oval;startFill=1;strokeWidth=2;entryX=0;entryY=0.5;entryDx=0;entryDy=0;exitX=1;exitY=0.5;exitDx=0;exitDy=0;strokeColor=#3333FF;" parent="1" source="BX0J_fmMSgkrb7NshgZh-2" target="BX0J_fmMSgkrb7NshgZh-4" edge="1">
          <mxGeometry relative="1" as="geometry">
            <mxPoint x="700" y="425" as="targetPoint" />
          </mxGeometry>
        </mxCell>
        <mxCell id="BX0J_fmMSgkrb7NshgZh-27" value="" style="edgeStyle=orthogonalEdgeStyle;rounded=0;orthogonalLoop=1;jettySize=auto;html=1;startArrow=oval;startFill=1;strokeWidth=2;entryX=0.5;entryY=1;entryDx=0;entryDy=0;exitX=0.5;exitY=0;exitDx=0;exitDy=0;strokeColor=#CC0000;" parent="1" source="BX0J_fmMSgkrb7NshgZh-2" target="BX0J_fmMSgkrb7NshgZh-5" edge="1">
          <mxGeometry relative="1" as="geometry">
            <mxPoint x="525" y="280" as="targetPoint" />
          </mxGeometry>
        </mxCell>
        <mxCell id="BX0J_fmMSgkrb7NshgZh-23" value="" style="edgeStyle=orthogonalEdgeStyle;rounded=0;orthogonalLoop=1;jettySize=auto;html=1;startArrow=oval;startFill=1;strokeWidth=2;entryX=0.75;entryY=0;entryDx=0;entryDy=0;exitX=0.5;exitY=0;exitDx=0;exitDy=0;strokeColor=#FF8000;" parent="1" source="BX0J_fmMSgkrb7NshgZh-3" target="BX0J_fmMSgkrb7NshgZh-2" edge="1">
          <mxGeometry relative="1" as="geometry">
            <mxPoint x="990" y="390" as="targetPoint" />
            <Array as="points">
              <mxPoint x="850" y="300" />
              <mxPoint x="588" y="300" />
            </Array>
          </mxGeometry>
        </mxCell>
        <mxCell id="BX0J_fmMSgkrb7NshgZh-3" value="OSCP" style="rounded=1;whiteSpace=wrap;html=1;shadow=1;comic=1;" parent="1" vertex="1">
          <mxGeometry x="790" y="360" width="120" height="60" as="geometry" />
        </mxCell>
        <mxCell id="BX0J_fmMSgkrb7NshgZh-4" value="Raven" style="rounded=1;whiteSpace=wrap;html=1;shadow=1;comic=1;" parent="1" vertex="1">
          <mxGeometry x="790" y="440" width="120" height="60" as="geometry" />
        </mxCell>
        <mxCell id="BX0J_fmMSgkrb7NshgZh-38" value="" style="edgeStyle=orthogonalEdgeStyle;rounded=0;orthogonalLoop=1;jettySize=auto;html=1;startArrow=oval;startFill=1;strokeColor=#006600;strokeWidth=2;exitX=0;exitY=0.5;exitDx=0;exitDy=0;" parent="1" source="BX0J_fmMSgkrb7NshgZh-5" edge="1">
          <mxGeometry relative="1" as="geometry">
            <mxPoint x="460" y="360" as="targetPoint" />
            <Array as="points">
              <mxPoint x="460" y="220" />
            </Array>
          </mxGeometry>
        </mxCell>
        <mxCell id="BX0J_fmMSgkrb7NshgZh-5" value="Case Management&amp;nbsp;&lt;br&gt;Portal" style="rounded=1;whiteSpace=wrap;html=1;shadow=1;comic=1;" parent="1" vertex="1">
          <mxGeometry x="475" y="190" width="120" height="60" as="geometry" />
        </mxCell>
        <mxCell id="BX0J_fmMSgkrb7NshgZh-7" value="" style="edgeStyle=orthogonalEdgeStyle;rounded=0;orthogonalLoop=1;jettySize=auto;html=1;startArrow=classic;startFill=1;strokeWidth=2;strokeColor=#006600;entryX=1;entryY=0.5;entryDx=0;entryDy=0;" parent="1" source="BX0J_fmMSgkrb7NshgZh-6" target="BX0J_fmMSgkrb7NshgZh-5" edge="1">
          <mxGeometry relative="1" as="geometry" />
        </mxCell>
        <mxCell id="BX0J_fmMSgkrb7NshgZh-6" value="CCP" style="shape=umlActor;verticalLabelPosition=bottom;labelBackgroundColor=#ffffff;verticalAlign=top;html=1;outlineConnect=0;shadow=1;comic=1;" parent="1" vertex="1">
          <mxGeometry x="710" y="190" width="30" height="60" as="geometry" />
        </mxCell>
        <mxCell id="BX0J_fmMSgkrb7NshgZh-18" value="" style="edgeStyle=orthogonalEdgeStyle;rounded=0;orthogonalLoop=1;jettySize=auto;html=1;startArrow=oval;startFill=1;strokeWidth=2;entryX=0;entryY=0.5;entryDx=0;entryDy=0;strokeColor=#3333FF;" parent="1" source="BX0J_fmMSgkrb7NshgZh-13" target="BX0J_fmMSgkrb7NshgZh-2" edge="1">
          <mxGeometry relative="1" as="geometry">
            <mxPoint x="430" y="440" as="targetPoint" />
          </mxGeometry>
        </mxCell>
        <mxCell id="BX0J_fmMSgkrb7NshgZh-13" value="GRU" style="rounded=1;whiteSpace=wrap;html=1;shadow=1;comic=1;" parent="1" vertex="1">
          <mxGeometry x="160" y="395" width="120" height="60" as="geometry" />
        </mxCell>
        <mxCell id="BX0J_fmMSgkrb7NshgZh-16" value="" style="edgeStyle=orthogonalEdgeStyle;rounded=0;orthogonalLoop=1;jettySize=auto;html=1;startArrow=oval;startFill=1;strokeWidth=2;entryX=0;entryY=0.5;entryDx=0;entryDy=0;strokeColor=#3333FF;" parent="1" source="BX0J_fmMSgkrb7NshgZh-14" target="BX0J_fmMSgkrb7NshgZh-2" edge="1">
          <mxGeometry relative="1" as="geometry">
            <mxPoint x="430" y="530" as="targetPoint" />
            <Array as="points">
              <mxPoint x="300" y="530" />
              <mxPoint x="300" y="425" />
            </Array>
          </mxGeometry>
        </mxCell>
        <mxCell id="BX0J_fmMSgkrb7NshgZh-14" value="RDE" style="rounded=1;whiteSpace=wrap;html=1;shadow=1;comic=1;" parent="1" vertex="1">
          <mxGeometry x="160" y="500" width="120" height="60" as="geometry" />
        </mxCell>
        <mxCell id="BX0J_fmMSgkrb7NshgZh-21" value="" style="edgeStyle=orthogonalEdgeStyle;rounded=0;orthogonalLoop=1;jettySize=auto;html=1;startArrow=oval;startFill=1;strokeWidth=2;entryX=0;entryY=0.5;entryDx=0;entryDy=0;exitX=1;exitY=0.5;exitDx=0;exitDy=0;strokeColor=#3333FF;" parent="1" source="BX0J_fmMSgkrb7NshgZh-2" target="BX0J_fmMSgkrb7NshgZh-3" edge="1">
          <mxGeometry relative="1" as="geometry">
            <mxPoint x="630" y="435" as="sourcePoint" />
            <mxPoint x="800" y="530" as="targetPoint" />
          </mxGeometry>
        </mxCell>
        <mxCell id="BX0J_fmMSgkrb7NshgZh-28" value="" style="edgeStyle=orthogonalEdgeStyle;rounded=0;orthogonalLoop=1;jettySize=auto;html=1;startArrow=oval;startFill=1;strokeWidth=2;exitX=0;exitY=0.5;exitDx=0;exitDy=0;dashed=1;dashPattern=1 2;strokeColor=#3333FF;entryX=1;entryY=0.5;entryDx=0;entryDy=0;" parent="1" source="BX0J_fmMSgkrb7NshgZh-2" target="BX0J_fmMSgkrb7NshgZh-2" edge="1">
          <mxGeometry relative="1" as="geometry">
            <mxPoint x="360" y="540" as="sourcePoint" />
            <mxPoint x="620" y="430" as="targetPoint" />
            <Array as="points">
              <mxPoint x="460" y="425" />
              <mxPoint x="460" y="460" />
              <mxPoint x="610" y="460" />
              <mxPoint x="610" y="425" />
            </Array>
          </mxGeometry>
        </mxCell>
        <mxCell id="XPzWv2A-EOttogHoarsB-1" value="&lt;font color=&quot;#3333ff&quot;&gt;orchestration&lt;/font&gt;" style="edgeLabel;html=1;align=center;verticalAlign=middle;resizable=0;points=[];" vertex="1" connectable="0" parent="BX0J_fmMSgkrb7NshgZh-28">
          <mxGeometry x="-0.1674" y="-2" relative="1" as="geometry">
            <mxPoint x="28" as="offset" />
          </mxGeometry>
        </mxCell>
        <mxCell id="BX0J_fmMSgkrb7NshgZh-29" value="&lt;font color=&quot;#cc0000&quot;&gt;alternate&lt;br&gt;path&lt;/font&gt;" style="edgeStyle=orthogonalEdgeStyle;rounded=0;orthogonalLoop=1;jettySize=auto;html=1;startArrow=diamondThin;startFill=0;strokeWidth=2;exitX=0.75;exitY=0;exitDx=0;exitDy=0;dashed=1;dashPattern=1 2;strokeColor=#CC0000;entryX=0.5;entryY=0;entryDx=0;entryDy=0;" parent="1" source="BX0J_fmMSgkrb7NshgZh-2" edge="1" target="BX0J_fmMSgkrb7NshgZh-2">
          <mxGeometry relative="1" as="geometry">
            <mxPoint x="440" y="435" as="sourcePoint" />
            <mxPoint x="525" y="360" as="targetPoint" />
            <Array as="points">
              <mxPoint x="588" y="390" />
              <mxPoint x="535" y="390" />
            </Array>
          </mxGeometry>
        </mxCell>
        <mxCell id="BX0J_fmMSgkrb7NshgZh-32" value="1" style="ellipse;whiteSpace=wrap;html=1;aspect=fixed;strokeWidth=2;fontFamily=Tahoma;spacingBottom=4;spacingRight=2;strokeColor=#d3d3d3;shadow=1;comic=1;" parent="1" vertex="1">
          <mxGeometry x="320" y="435" width="20" height="20" as="geometry" />
        </mxCell>
        <mxCell id="BX0J_fmMSgkrb7NshgZh-33" value="2" style="ellipse;whiteSpace=wrap;html=1;aspect=fixed;strokeWidth=2;fontFamily=Tahoma;spacingBottom=4;spacingRight=2;strokeColor=#d3d3d3;shadow=1;comic=1;" parent="1" vertex="1">
          <mxGeometry x="670" y="435" width="20" height="20" as="geometry" />
        </mxCell>
        <mxCell id="BX0J_fmMSgkrb7NshgZh-34" value="3" style="ellipse;whiteSpace=wrap;html=1;aspect=fixed;strokeWidth=2;fontFamily=Tahoma;spacingBottom=4;spacingRight=2;strokeColor=#d3d3d3;shadow=1;comic=1;" parent="1" vertex="1">
          <mxGeometry x="670" y="290" width="20" height="20" as="geometry" />
        </mxCell>
        <mxCell id="BX0J_fmMSgkrb7NshgZh-40" value="4" style="ellipse;whiteSpace=wrap;html=1;aspect=fixed;strokeWidth=2;fontFamily=Tahoma;spacingBottom=4;spacingRight=2;strokeColor=#d3d3d3;shadow=1;comic=1;" parent="1" vertex="1">
          <mxGeometry x="510" y="267" width="20" height="20" as="geometry" />
        </mxCell>
        <mxCell id="BX0J_fmMSgkrb7NshgZh-41" value="5" style="ellipse;whiteSpace=wrap;html=1;aspect=fixed;strokeWidth=2;fontFamily=Tahoma;spacingBottom=4;spacingRight=2;strokeColor=#d3d3d3;shadow=1;comic=1;" parent="1" vertex="1">
          <mxGeometry x="640" y="210" width="20" height="20" as="geometry" />
        </mxCell>
        <mxCell id="BX0J_fmMSgkrb7NshgZh-42" value="6" style="ellipse;whiteSpace=wrap;html=1;aspect=fixed;strokeWidth=2;fontFamily=Tahoma;spacingBottom=4;spacingRight=2;strokeColor=#d3d3d3;shadow=1;comic=1;" parent="1" vertex="1">
          <mxGeometry x="450" y="267" width="20" height="20" as="geometry" />
        </mxCell>
        <mxCell id="BX0J_fmMSgkrb7NshgZh-45" value="" style="edgeStyle=orthogonalEdgeStyle;rounded=0;orthogonalLoop=1;jettySize=auto;html=1;startArrow=oval;startFill=1;strokeColor=#006600;strokeWidth=2;exitX=0;exitY=0.25;exitDx=0;exitDy=0;entryX=1;entryY=0.5;entryDx=0;entryDy=0;dashed=1;dashPattern=1 2;" parent="1" source="BX0J_fmMSgkrb7NshgZh-2" target="BX0J_fmMSgkrb7NshgZh-2" edge="1">
          <mxGeometry relative="1" as="geometry">
            <mxPoint x="490" y="230" as="sourcePoint" />
            <mxPoint x="440" y="402.5" as="targetPoint" />
            <Array as="points">
              <mxPoint x="470" y="393" />
              <mxPoint x="470" y="450" />
              <mxPoint x="610" y="450" />
              <mxPoint x="610" y="425" />
            </Array>
          </mxGeometry>
        </mxCell>
        <mxCell id="XPzWv2A-EOttogHoarsB-2" value="orchestration" style="edgeLabel;html=1;align=center;verticalAlign=middle;resizable=0;points=[];fontColor=#006600;" vertex="1" connectable="0" parent="BX0J_fmMSgkrb7NshgZh-45">
          <mxGeometry x="-0.0391" relative="1" as="geometry">
            <mxPoint x="25.5" as="offset" />
          </mxGeometry>
        </mxCell>
        <mxCell id="XPzWv2A-EOttogHoarsB-18" value="" style="shape=stencil(lZzJkt3GEUW/preImoe1LP+HIkSbDNukgqJt6e+d5Q6ggZvvHXTvyH55gRqycriZhZf80++ff/nt00sKv//4/u0fn/775dcfn1/yX15S+vL186fvX37Yv17yzy/5p799+/7p79+//fvrr6///+2XJbn+9a9v/1lP+OMVl8uW8kKl8OfrX8o2y///8NdX+X9++XqWz9ucH5FPW28fkE9z6x95fuo6nrqFDPJ1i0nkUwf5tAWV7+G5fBz7z7t823IEeXv99fl9SwPk4zau8mNfgIfyNpyruD0ggLyNdlzl81ZgfcpW5Pl1m7Se+6+H/NgK7G/c+nU8KWwd9jds46pu642V5JPIm741kg/X42IrVhPKX9XBdiSAPgRVTzsQFfYr6H7luGXQT1u9eJXPWyR93uJ1vrnuBuOJfCtX+Y7rk7Z41Yc8t4H608Vc2RPgvOR9NQ75gvqWt3Fdz2L7C/L2tHqVHzjf4szVsYMP5etWr/Ot6eb8ynrWvJ+IJ/JDxlO3BuPvW7vOt/Ytgz7Y6Zbxj32FH8rPLYn5tPWB8cxtXs9Li1sF/Ylha9cBtbSbyGcGN11XtGX2AGayrkvUypbJxJkGNwUMOmNpq1clbYcXeQzIaoUMQFbFALUpgNxMLFuUSbetkN8r6scMQAc/Hnp5AEzzQLOjHdyoAFK92FVX2+A3jH1fT4BOANNuGdLE02yAORRA4cSy70UBBd5gBlsnPbd2ExBVBZCFMYDoUg/oApPTVgNEekPet+kEwFXKasUMQF5huYWuADpAZueDe0OnIRU13AYYYGYMkNwbBg8pX3e6x32QzwAS2xkg8ZBqUQAZAQNIsGyAxnOY7g1kl1LV9KYn9FfL4TYFkH8wgHignvcY7jGgaUhigEL70LY2FNBp0t0pX0EzYwDdaXZZBugOUGkOQ9MoA5CpNECOCqBA3gDiFHvdY9dngFEVgJOeGpv3Izp7BlC7VNkImOkNCpikS3MPFA5Aw3A+u/zFAAlUwwDisgxACaEBdNINI0oDVPeGTiG9hXDuDRP2wQASa3Q7IfwGcbsGIMtnSVcsCsigrStLc0OqoBoGqA7QaNJRIwED4LLGPfE9AXBZXe7WB5oZA6hqjF27ngHUGHNEttimooBCk07bjAqg/MHS5eCGRPHSyq+nAojBMIBaPo4qDaDWe6B/MECtChh0RLOmNHcA8zduHwadh7IHCifAJNUomqgvAO1Ddas0kSnMbQvdAWhZ2x6wnQCRJt2dy5p8HsZuVM4AYjPm7g3e+wbvUCZGMyXs6cU796F4U8naagChfG6OaEmasS+rATttAK/etNMlO6doqSWxRJZwOEADh2IAb4yJJyplp43f6bIM4B1KoJ0uSh2a28VJ+yN6RLKPAfVBcEIBlgFSUQAlHAaoQQEU/hhAQ4e26+9jQHPmvu7BxDOAMKYGIPandKXIOlN2BtDktWJ6vChMmUPBMLRMl1qaPQeXVYPLUDJaDQNIWcgAFC/VqMRpPzz3Y0By+XTCI1qPwsIJQNR4zc7cRwywqucEIuai9VE+TQeo1gdvQDrap8dxf8QzgBDMPeB5qG3n88+8Bs2hOQ8U0MwYQM902Gf1GNAdicB0kQF0HwKmlnXsVugESDSH4ZTvBnCweu8EtGOK7wXEBwzWDWA42i5BvNTSHsufAXAeWnasAzOJ7Sh2nrlKUO/m6kVtIk3RihYcF30KZsYAynvPPZh4BpieAoYDtIoHjtHFfXBGYNHYtKxVPVDjKlBzZaw2sOiyqg1NAURIGUAYrEX2U2GtaURmAOocaN2R/QPTAQP4OeCydo3I7C/kRdfPwwFIl4YrfnENxQBaXrsBTFdOuJnD1Lh1LSsYge5ijcbpwHIfbuPoxC0XOBRATStvbvx84mCVVmThjQC9Ibl9mOh2DaCUFxvj7mmKgMTgCti8n6aNc7b1pobSXRGyH+WwZwDv4zrNoew/vxdQHwyJzP2ilJ3LovJad7Z1BVi0cc3lD6a/tKzNJU0Ra/Jv/O05DKU5dJf4RSwGr9zWVWko2zWA7jRH9ys/FwDnD4sBSAqgDGVxDLKsZf/LM4D0CSz9BZfVH9ZQyAgM7WYx7aI87o2JeWe2u8hSxwlUnrRyM0xTLKLxQ1TLAnyIlV4EV1AAmvvhyJyJ9OkiGq/KN7i2u0i66wEaCSsciwa8DmlwEdIAQtCOgo7dAJLtjsZWY+pOj77/5RlA9mFwGDpc8Wty/mAA4SpnxJqiAZIDkDE2gDC6M2EFfDi+dWZuwApqyAxArMMISmPPgjWUEd2ycg+uAbIDUIA1jq6AA9AwODHtF97bAORFDSCtC5MLeMM1shpg0ByyNtrMgXSRAYQ5mQMrfnYgVZcG9rIaQPz0nJjSDNesbADycQaQUq0BKI8bzW0cm0oDVPcGSmmGizUWgCbdNfyJIaCjNoSQM+sV4CCGOeruZk3aN3bm/byupBvzwRvwUE+n31zMmkE9+426mmWUdHcO9OxmGaVmvs4oAbLydmYFGs2haIQ1uf9iGbqiAEpG7WfduIIV7dmUx7ZZUUOyrYmeoIStarNr04ntDIVk8+hgP7tRWlan3oOLu9Ndohg3Oz01lh4V27CXobsa15F5H6buw+BEbh1IV9Gmzvy3I3+KpVFbp2uGS2jJpusmvcnxT4buTOd8EHE/C99fTfo61bo2vgLwAMAssAdUJrH8TlRuVlt7fd2JGndP+U5tKrdDknCjZCyj+COUJ9aO5sGXHoCKOfh0jjRHjBPN9kl/derY3TaLKvhq3CVA1qxmNVDTPkSNE2PnwNLZjVjRjy5LJ+FGwn0YRRtQ4014klz7D3JYKwuSOyV4QFefmdwBwh7dVY2WO1h3RGKQO2pMnrqExnIoqiUMPWu8nquU0ESeYoDmtDRwQcdlDhFJmWUOs64nPT+oBc6Y+tTpr4ASX1Jd32zBkL4ODds4plo3kMT6olmpzqwUTLmr6zIpyJdWd0X2plUhaZKU0KTUqBYi7WTOQ/ni7khFZMWLI/Uit4t0jcsj3u8orsLPNrfUfbnf5Cu3QglrE7D+ubq5dDxUrC9JTXrAwK5E7TG9eX7UO51hj58fywf/fJyvo5ACX1l0LBjbq9VDqPKU82fX9R64fdVRkQFDoey4Tu5AyVNrNhF7APLUlmAmCfNQ+x8xHM1D9zcia2nyQ/0F+UeTF38dUT9Nvqk86VseWtKKWLZYXa66PlTKN/mk48ELB0dz50me1qdrdM/20+S76gMFob4NOCLZb/JZx0/JhslL/JZ21uKxfHNRNOtz06JoYv1s6l8S35VoOt/EV7ibspQcQK9Gb/W/qD+upS1hWdrkuz6f4u3sbromzNyya2pNe2HkmXzW/cV7Hi7+SRjPZ/eJjYz3DLO7E5/5do7rK87YkpuLrn/myzxF47GM8VUumk9lJKuy6zrIGJ/novEqf5Iju5uhma+0uDbTjFzEkpc8HrtS/WWQzBeRXO97xj7zJa/jQf3PWvDlgljO6k8zllVy1rLKvbzu1518VHm+7iO3nQvy7Es+qDzvV3X5EZ33rG2cnD8ueR0PVanWBSodD1VIs4v/j4vPT+WTyvP6SFWhIIO/rphpfn13JU0/4YQ3A13jOue/Jq/fRMG6/LqEp+PHy2JJK0fcWbBuBXaRv/kEVVH+Ci9+uWuKzD+YfFL+4eZWo+xvxfwxH7cE3uQx3o7q7yrmy+tqqY4H87Wo/qvy/kattVS+2hfd91CQf1sschL5mzvQ+s2Y/c7OM3nJZ7n5IAdd/8b5V/jYJ8Oy/4QNX4oNGp805D+z4wdU3v7x9j2510/RnX/Tb8/Zn16/W5d//h8=);fillColor=#fff2cc;shadow=1;comic=1;strokeColor=#d6b656;strokeWidth=2;opacity=60;" vertex="1" parent="1">
          <mxGeometry x="380" y="160" width="620" height="320" as="geometry" />
        </mxCell>
      </root>
    </mxGraphModel>
  </diagram>
</mxfile>
